<mxfile host="Electron" modified="2023-12-27T21:40:47.077Z" agent="Mozilla/5.0 (Windows NT 10.0; Win64; x64) AppleWebKit/537.36 (KHTML, like Gecko) draw.io/22.0.2 Chrome/114.0.5735.289 Electron/25.8.4 Safari/537.36" etag="VsTed89uHV7C_k41hvk6" version="22.0.2" type="device">
  <diagram name="Page-1" id="f-tqmfMpfMZ7qoQ5nY5d">
    <mxGraphModel dx="3740" dy="2108" grid="1" gridSize="10" guides="1" tooltips="1" connect="1" arrows="1" fold="1" page="1" pageScale="1" pageWidth="850" pageHeight="1100" math="0" shadow="0">
      <root>
        <mxCell id="0" />
        <mxCell id="1" parent="0" />
        <mxCell id="Ye74qde-6JXeKK0IROxp-29" value="&lt;p style=&quot;margin: 4px 0px 0px; text-align: center; font-size: 18px;&quot;&gt;Hall&lt;/p&gt;&lt;hr style=&quot;font-size: 18px;&quot;&gt;&lt;p style=&quot;margin: 0px 0px 0px 4px; font-size: 18px;&quot;&gt;Hall number&lt;/p&gt;&amp;nbsp;Reservation times&lt;br&gt;&amp;nbsp;Number of seats&amp;nbsp;&lt;br&gt;&lt;hr style=&quot;font-size: 18px;&quot;&gt;&lt;p style=&quot;margin: 0px 0px 0px 4px; font-size: 18px;&quot;&gt;&lt;br style=&quot;font-size: 18px;&quot;&gt;&lt;/p&gt;&lt;p style=&quot;border-color: var(--border-color); margin: 0px 0px 0px 4px;&quot;&gt;add_hall&lt;/p&gt;&lt;p style=&quot;border-color: var(--border-color); margin: 0px 0px 0px 4px;&quot;&gt;delete&lt;/p&gt;&lt;p style=&quot;border-color: var(--border-color); margin: 0px 0px 0px 4px;&quot;&gt;update&lt;/p&gt;&lt;p style=&quot;border-color: var(--border-color); margin: 0px 0px 0px 4px;&quot;&gt;add_employee_to_hall&lt;/p&gt;&lt;p style=&quot;border-color: var(--border-color); margin: 0px 0px 0px 4px;&quot;&gt;delete_employee_from_hall&lt;/p&gt;&lt;p style=&quot;border-color: var(--border-color); margin: 0px 0px 0px 4px;&quot;&gt;&lt;br&gt;&lt;/p&gt;&lt;p style=&quot;border-color: var(--border-color); margin: 0px 0px 0px 4px;&quot;&gt;&lt;br&gt;&lt;/p&gt;" style="verticalAlign=top;align=left;overflow=fill;fontSize=18;fontFamily=Helvetica;html=1;fontStyle=1" parent="1" vertex="1">
          <mxGeometry x="-760" y="-150" width="250" height="290" as="geometry" />
        </mxCell>
        <mxCell id="Ye74qde-6JXeKK0IROxp-30" value="&lt;p style=&quot;margin: 4px 0px 0px; text-align: center; font-size: 18px;&quot;&gt;movie&lt;/p&gt;&lt;hr style=&quot;font-size: 18px;&quot;&gt;&lt;p style=&quot;margin: 0px 0px 0px 4px; font-size: 18px;&quot;&gt;&lt;/p&gt;&amp;nbsp;Movie ID&lt;br&gt;&amp;nbsp;Movie name&lt;br&gt;&amp;nbsp;Description&lt;br&gt;&amp;nbsp;Type&lt;br&gt;&amp;nbsp;Date&lt;br&gt;&amp;nbsp;HallIDnum&amp;nbsp;&lt;br&gt;&amp;nbsp; &amp;nbsp; &amp;nbsp;start time&lt;br&gt;&amp;nbsp; &amp;nbsp; &amp;nbsp;end time&lt;br&gt;&lt;hr style=&quot;font-size: 18px;&quot;&gt;&lt;p style=&quot;margin: 0px 0px 0px 4px; font-size: 18px;&quot;&gt;add_movie&lt;/p&gt;&lt;p style=&quot;margin: 0px 0px 0px 4px; font-size: 18px;&quot;&gt;delete&lt;/p&gt;&lt;p style=&quot;margin: 0px 0px 0px 4px; font-size: 18px;&quot;&gt;update&lt;/p&gt;&lt;p style=&quot;margin: 0px 0px 0px 4px; font-size: 18px;&quot;&gt;add_ticket&lt;/p&gt;" style="verticalAlign=top;align=left;overflow=fill;fontSize=18;fontFamily=Helvetica;html=1;fontStyle=1" parent="1" vertex="1">
          <mxGeometry x="-370" y="-100" width="250" height="360" as="geometry" />
        </mxCell>
        <mxCell id="Ye74qde-6JXeKK0IROxp-33" value="&lt;p style=&quot;margin: 4px 0px 0px; text-align: center; font-size: 18px;&quot;&gt;Tiket&lt;/p&gt;&lt;hr style=&quot;font-size: 18px;&quot;&gt;&lt;p style=&quot;margin: 0px 0px 0px 4px; font-size: 18px;&quot;&gt;&amp;nbsp;Tiket ID&lt;/p&gt;&amp;nbsp;Name of the movie&lt;br&gt;&amp;nbsp;Date&lt;br&gt;&amp;nbsp;Time&lt;br&gt;&amp;nbsp;Hall num&lt;br&gt;&amp;nbsp;Price&lt;br&gt;&amp;nbsp;Seat num&lt;br&gt;&amp;nbsp;Remaining num&lt;br&gt;&lt;br&gt;&lt;br&gt;&lt;br&gt;&lt;br&gt;&lt;hr style=&quot;font-size: 18px;&quot;&gt;&lt;p style=&quot;margin: 0px 0px 0px 4px; font-size: 18px;&quot;&gt;add_ticket&lt;/p&gt;&lt;p style=&quot;margin: 0px 0px 0px 4px; font-size: 18px;&quot;&gt;delete&lt;/p&gt;&lt;p style=&quot;margin: 0px 0px 0px 4px; font-size: 18px;&quot;&gt;update&lt;/p&gt;&lt;p style=&quot;margin: 0px 0px 0px 4px; font-size: 18px;&quot;&gt;&lt;br&gt;&lt;/p&gt;&lt;p style=&quot;margin: 0px 0px 0px 4px; font-size: 18px;&quot;&gt;&lt;br style=&quot;font-size: 18px;&quot;&gt;&lt;/p&gt;" style="verticalAlign=top;align=left;overflow=fill;fontSize=18;fontFamily=Helvetica;html=1;fontStyle=1" parent="1" vertex="1">
          <mxGeometry x="-610" y="280" width="250" height="390" as="geometry" />
        </mxCell>
        <mxCell id="Ye74qde-6JXeKK0IROxp-35" value="&lt;p style=&quot;margin: 4px 0px 0px; text-align: center; font-size: 18px;&quot;&gt;Snack&lt;/p&gt;&lt;hr style=&quot;font-size: 18px;&quot;&gt;&lt;p style=&quot;margin: 0px 0px 0px 4px; font-size: 18px;&quot;&gt;Snack ID&lt;/p&gt;&lt;p style=&quot;margin: 0px 0px 0px 4px; font-size: 18px;&quot;&gt;Price&lt;/p&gt;&lt;p style=&quot;margin: 0px 0px 0px 4px; font-size: 18px;&quot;&gt;&lt;span style=&quot;background-color: initial;&quot;&gt;Name&lt;/span&gt;&lt;/p&gt;&amp;nbsp;Quantity Available&lt;br&gt;&amp;nbsp;Quantity to order&lt;br&gt;&lt;hr style=&quot;font-size: 18px;&quot;&gt;&lt;p style=&quot;margin: 0px 0px 0px 4px; font-size: 18px;&quot;&gt;&lt;br style=&quot;font-size: 18px;&quot;&gt;&lt;/p&gt;&lt;p style=&quot;border-color: var(--border-color); margin: 0px 0px 0px 4px;&quot;&gt;add_snack&lt;/p&gt;&lt;p style=&quot;border-color: var(--border-color); margin: 0px 0px 0px 4px;&quot;&gt;delete&lt;/p&gt;&lt;p style=&quot;border-color: var(--border-color); margin: 0px 0px 0px 4px;&quot;&gt;update&lt;/p&gt;" style="verticalAlign=top;align=left;overflow=fill;fontSize=18;fontFamily=Helvetica;html=1;fontStyle=1" parent="1" vertex="1">
          <mxGeometry x="-210" y="570" width="250" height="320" as="geometry" />
        </mxCell>
        <mxCell id="Ye74qde-6JXeKK0IROxp-36" value="&lt;br class=&quot;Apple-interchange-newline&quot;&gt;" style="text;whiteSpace=wrap;html=1;" parent="1" vertex="1">
          <mxGeometry x="-510" y="880" width="30" height="40" as="geometry" />
        </mxCell>
        <mxCell id="Ye74qde-6JXeKK0IROxp-37" value="&lt;p style=&quot;margin: 4px 0px 0px; text-align: center; font-size: 18px;&quot;&gt;custamer&lt;/p&gt;&lt;hr style=&quot;font-size: 18px;&quot;&gt;&lt;p style=&quot;margin: 0px 0px 0px 4px; font-size: 18px;&quot;&gt;gamil&lt;/p&gt;&lt;p style=&quot;margin: 0px 0px 0px 4px; font-size: 18px;&quot;&gt;&amp;nbsp;Name&lt;/p&gt;&lt;p style=&quot;margin: 0px 0px 0px 4px; font-size: 18px;&quot;&gt;password&lt;/p&gt;&lt;p style=&quot;margin: 0px 0px 0px 4px; font-size: 18px;&quot;&gt;&lt;br&gt;&lt;/p&gt;&lt;p style=&quot;margin: 0px 0px 0px 4px; font-size: 18px;&quot;&gt;&lt;br&gt;&lt;/p&gt;&lt;br&gt;&lt;hr style=&quot;font-size: 18px;&quot;&gt;&lt;p style=&quot;margin: 0px 0px 0px 4px; font-size: 18px;&quot;&gt;&lt;br style=&quot;font-size: 18px;&quot;&gt;&lt;/p&gt;&lt;p style=&quot;margin: 0px 0px 0px 4px; font-size: 18px;&quot;&gt;&lt;br style=&quot;font-size: 18px;&quot;&gt;&lt;/p&gt;" style="verticalAlign=top;align=left;overflow=fill;fontSize=18;fontFamily=Helvetica;html=1;fontStyle=1" parent="1" vertex="1">
          <mxGeometry x="-560" y="770" width="250" height="120" as="geometry" />
        </mxCell>
        <mxCell id="Ye74qde-6JXeKK0IROxp-38" value="&lt;p style=&quot;margin: 4px 0px 0px; text-align: center; font-size: 18px;&quot;&gt;Bill&lt;/p&gt;&lt;hr style=&quot;font-size: 18px;&quot;&gt;&lt;p style=&quot;margin: 0px 0px 0px 4px; font-size: 18px;&quot;&gt;&lt;/p&gt;&amp;nbsp;ID&lt;br&gt;&lt;p style=&quot;border-color: var(--border-color); margin: 0px 0px 0px 4px;&quot;&gt;total price&lt;br style=&quot;border-color: var(--border-color);&quot;&gt;&lt;/p&gt;&lt;p style=&quot;border-color: var(--border-color); margin: 0px 0px 0px 4px;&quot;&gt;&lt;br style=&quot;border-color: var(--border-color);&quot;&gt;&lt;/p&gt;&lt;hr style=&quot;font-size: 18px;&quot;&gt;&lt;p style=&quot;margin: 0px 0px 0px 4px; font-size: 18px;&quot;&gt;delete_bill&lt;/p&gt;&lt;p style=&quot;margin: 0px 0px 0px 4px; font-size: 18px;&quot;&gt;delet_all&lt;/p&gt;&lt;p style=&quot;margin: 0px 0px 0px 4px; font-size: 18px;&quot;&gt;total_sales&lt;/p&gt;&lt;p style=&quot;margin: 0px 0px 0px 4px; font-size: 18px;&quot;&gt;ticket_sales&lt;/p&gt;&lt;p style=&quot;margin: 0px 0px 0px 4px; font-size: 18px;&quot;&gt;snack_sales&lt;/p&gt;&lt;p style=&quot;margin: 0px 0px 0px 4px; font-size: 18px;&quot;&gt;total_count&lt;/p&gt;&lt;p style=&quot;margin: 0px 0px 0px 4px; font-size: 18px;&quot;&gt;ticket_count&lt;/p&gt;&lt;p style=&quot;margin: 0px 0px 0px 4px; font-size: 18px;&quot;&gt;snack_count&lt;/p&gt;&lt;p style=&quot;margin: 0px 0px 0px 4px; font-size: 18px;&quot;&gt;&lt;br&gt;&lt;/p&gt;" style="verticalAlign=top;align=left;overflow=fill;fontSize=18;fontFamily=Helvetica;html=1;fontStyle=1" parent="1" vertex="1">
          <mxGeometry x="-1030" y="690" width="250" height="380" as="geometry" />
        </mxCell>
        <mxCell id="Ye74qde-6JXeKK0IROxp-39" value="&lt;p style=&quot;margin: 4px 0px 0px; text-align: center; font-size: 18px;&quot;&gt;Employee&lt;/p&gt;&lt;hr style=&quot;font-size: 18px;&quot;&gt;&lt;p style=&quot;margin: 0px 0px 0px 4px; font-size: 18px;&quot;&gt;&lt;/p&gt;&amp;nbsp;IDnum&lt;br&gt;&amp;nbsp;Name&lt;br&gt;&amp;nbsp;Birthday&lt;br&gt;&amp;nbsp;Phone num&lt;br&gt;&amp;nbsp;Salary&lt;br&gt;working_days&lt;br&gt;working_hours&lt;br&gt;&amp;nbsp;&lt;br&gt;&lt;hr style=&quot;font-size: 18px;&quot;&gt;&lt;p style=&quot;margin: 0px 0px 0px 4px; font-size: 18px;&quot;&gt;-add_employee&lt;/p&gt;&lt;p style=&quot;margin: 0px 0px 0px 4px; font-size: 18px;&quot;&gt;delete&lt;/p&gt;&lt;p style=&quot;margin: 0px 0px 0px 4px; font-size: 18px;&quot;&gt;update&lt;/p&gt;&lt;p style=&quot;margin: 0px 0px 0px 4px; font-size: 18px;&quot;&gt;&lt;br&gt;&lt;/p&gt;&lt;p style=&quot;margin: 0px 0px 0px 4px; font-size: 18px;&quot;&gt;&lt;br style=&quot;font-size: 18px;&quot;&gt;&lt;/p&gt;" style="verticalAlign=top;align=left;overflow=fill;fontSize=18;fontFamily=Helvetica;html=1;fontStyle=1" parent="1" vertex="1">
          <mxGeometry x="-1100" y="250" width="250" height="310" as="geometry" />
        </mxCell>
        <mxCell id="Ye74qde-6JXeKK0IROxp-40" value="&lt;p style=&quot;margin: 4px 0px 0px; text-align: center; font-size: 18px;&quot;&gt;address&lt;/p&gt;&lt;hr style=&quot;font-size: 18px;&quot;&gt;&lt;p style=&quot;margin: 0px 0px 0px 4px; font-size: 18px;&quot;&gt;&lt;/p&gt;&lt;br&gt;&amp;nbsp;Street&lt;br&gt;&lt;hr style=&quot;font-size: 18px;&quot;&gt;&lt;p style=&quot;margin: 0px 0px 0px 4px; font-size: 18px;&quot;&gt;&lt;br style=&quot;font-size: 18px;&quot;&gt;&lt;/p&gt;&lt;p style=&quot;margin: 0px 0px 0px 4px; font-size: 18px;&quot;&gt;&lt;br style=&quot;font-size: 18px;&quot;&gt;&lt;/p&gt;" style="verticalAlign=top;align=left;overflow=fill;fontSize=18;fontFamily=Helvetica;html=1;fontStyle=1" parent="1" vertex="1">
          <mxGeometry x="-1390" y="530" width="250" height="120" as="geometry" />
        </mxCell>
        <mxCell id="WfwrwntMDEFSlIYNpfYc-13" value="" style="endArrow=none;html=1;rounded=0;fontFamily=Helvetica;fontSize=12;fontColor=default;entryX=1;entryY=0.5;entryDx=0;entryDy=0;exitX=0;exitY=0.5;exitDx=0;exitDy=0;" parent="1" source="Ye74qde-6JXeKK0IROxp-30" target="Ye74qde-6JXeKK0IROxp-29" edge="1">
          <mxGeometry width="50" height="50" relative="1" as="geometry">
            <mxPoint x="-690" y="480" as="sourcePoint" />
            <mxPoint x="-640" y="430" as="targetPoint" />
            <Array as="points" />
          </mxGeometry>
        </mxCell>
        <mxCell id="WfwrwntMDEFSlIYNpfYc-15" value="" style="endArrow=none;html=1;rounded=0;fontFamily=Helvetica;fontSize=12;fontColor=default;entryX=0;entryY=0.25;entryDx=0;entryDy=0;" parent="1" target="Ye74qde-6JXeKK0IROxp-33" edge="1">
          <mxGeometry width="50" height="50" relative="1" as="geometry">
            <mxPoint x="-850" y="420" as="sourcePoint" />
            <mxPoint x="-840" y="300" as="targetPoint" />
            <Array as="points" />
          </mxGeometry>
        </mxCell>
        <mxCell id="WfwrwntMDEFSlIYNpfYc-23" value="" style="endArrow=none;html=1;rounded=0;fontFamily=Helvetica;fontSize=12;fontColor=default;exitX=0.16;exitY=-0.016;exitDx=0;exitDy=0;exitPerimeter=0;entryX=0.45;entryY=1.015;entryDx=0;entryDy=0;entryPerimeter=0;" parent="1" source="Ye74qde-6JXeKK0IROxp-38" target="Ye74qde-6JXeKK0IROxp-39" edge="1">
          <mxGeometry width="50" height="50" relative="1" as="geometry">
            <mxPoint x="-960" y="730" as="sourcePoint" />
            <mxPoint x="-990" y="540" as="targetPoint" />
            <Array as="points">
              <mxPoint x="-990" y="610" />
            </Array>
          </mxGeometry>
        </mxCell>
        <mxCell id="WfwrwntMDEFSlIYNpfYc-24" value="" style="endArrow=none;html=1;rounded=0;fontFamily=Helvetica;fontSize=12;fontColor=default;entryX=0.364;entryY=1.014;entryDx=0;entryDy=0;entryPerimeter=0;" parent="1" target="Ye74qde-6JXeKK0IROxp-30" edge="1">
          <mxGeometry width="50" height="50" relative="1" as="geometry">
            <mxPoint x="-280" y="440" as="sourcePoint" />
            <mxPoint x="-450" y="260" as="targetPoint" />
          </mxGeometry>
        </mxCell>
        <mxCell id="WfwrwntMDEFSlIYNpfYc-25" value="" style="endArrow=none;html=1;rounded=0;fontFamily=Helvetica;fontSize=12;fontColor=default;exitX=0.993;exitY=0.299;exitDx=0;exitDy=0;exitPerimeter=0;" parent="1" source="Ye74qde-6JXeKK0IROxp-33" edge="1">
          <mxGeometry width="50" height="50" relative="1" as="geometry">
            <mxPoint x="-460" y="440" as="sourcePoint" />
            <mxPoint x="-280" y="440" as="targetPoint" />
          </mxGeometry>
        </mxCell>
        <mxCell id="WfwrwntMDEFSlIYNpfYc-26" value="" style="endArrow=none;html=1;rounded=0;fontFamily=Helvetica;fontSize=12;fontColor=default;entryX=0.548;entryY=1.005;entryDx=0;entryDy=0;entryPerimeter=0;exitX=0.342;exitY=0.01;exitDx=0;exitDy=0;exitPerimeter=0;" parent="1" source="Ye74qde-6JXeKK0IROxp-37" target="Ye74qde-6JXeKK0IROxp-33" edge="1">
          <mxGeometry width="50" height="50" relative="1" as="geometry">
            <mxPoint x="-620" y="770" as="sourcePoint" />
            <mxPoint x="-570" y="720" as="targetPoint" />
          </mxGeometry>
        </mxCell>
        <mxCell id="WfwrwntMDEFSlIYNpfYc-29" value="" style="endArrow=none;html=1;rounded=0;fontFamily=Helvetica;fontSize=12;fontColor=default;entryX=-0.009;entryY=0.671;entryDx=0;entryDy=0;entryPerimeter=0;exitX=0.663;exitY=-0.007;exitDx=0;exitDy=0;exitPerimeter=0;" parent="1" source="Ye74qde-6JXeKK0IROxp-39" target="Ye74qde-6JXeKK0IROxp-29" edge="1">
          <mxGeometry width="50" height="50" relative="1" as="geometry">
            <mxPoint x="-950" y="210" as="sourcePoint" />
            <mxPoint x="-900" y="160" as="targetPoint" />
            <Array as="points">
              <mxPoint x="-934" y="167" />
            </Array>
          </mxGeometry>
        </mxCell>
        <mxCell id="WfwrwntMDEFSlIYNpfYc-30" value="" style="endArrow=none;html=1;rounded=0;fontFamily=Helvetica;fontSize=12;fontColor=default;exitX=0.404;exitY=-0.001;exitDx=0;exitDy=0;exitPerimeter=0;" parent="1" source="Ye74qde-6JXeKK0IROxp-39" edge="1">
          <mxGeometry width="50" height="50" relative="1" as="geometry">
            <mxPoint x="-980" y="390" as="sourcePoint" />
            <mxPoint x="-1080" y="160" as="targetPoint" />
            <Array as="points">
              <mxPoint x="-1000" y="160" />
            </Array>
          </mxGeometry>
        </mxCell>
        <mxCell id="WfwrwntMDEFSlIYNpfYc-31" value="" style="endArrow=none;html=1;rounded=0;fontFamily=Helvetica;fontSize=12;fontColor=default;exitX=0.079;exitY=0;exitDx=0;exitDy=0;exitPerimeter=0;" parent="1" source="Ye74qde-6JXeKK0IROxp-39" edge="1">
          <mxGeometry width="50" height="50" relative="1" as="geometry">
            <mxPoint x="-1080" y="240" as="sourcePoint" />
            <mxPoint x="-1080" y="160" as="targetPoint" />
            <Array as="points">
              <mxPoint x="-1080" y="200" />
            </Array>
          </mxGeometry>
        </mxCell>
        <mxCell id="WfwrwntMDEFSlIYNpfYc-32" value="*&lt;br&gt;Supervisor&amp;nbsp;" style="text;html=1;strokeColor=none;fillColor=none;align=center;verticalAlign=middle;whiteSpace=wrap;rounded=0;fontSize=12;fontFamily=Helvetica;fontColor=default;" parent="1" vertex="1">
          <mxGeometry x="-1140" y="220" width="60" height="30" as="geometry" />
        </mxCell>
        <mxCell id="WfwrwntMDEFSlIYNpfYc-33" value="" style="endArrow=none;html=1;rounded=0;fontFamily=Helvetica;fontSize=12;fontColor=default;entryX=0.75;entryY=1;entryDx=0;entryDy=0;exitX=0.59;exitY=1.013;exitDx=0;exitDy=0;exitPerimeter=0;" parent="1" source="Ye74qde-6JXeKK0IROxp-35" target="Ye74qde-6JXeKK0IROxp-38" edge="1">
          <mxGeometry width="50" height="50" relative="1" as="geometry">
            <mxPoint x="-650" y="930" as="sourcePoint" />
            <mxPoint x="-600" y="880" as="targetPoint" />
            <Array as="points">
              <mxPoint x="-50" y="1100" />
              <mxPoint x="-610" y="1100" />
              <mxPoint x="-842" y="1110" />
            </Array>
          </mxGeometry>
        </mxCell>
        <mxCell id="pPmnraLCHtTLtx8yH-ZN-2" value="" style="endArrow=none;dashed=1;html=1;dashPattern=1 3;strokeWidth=2;rounded=0;entryX=0.547;entryY=-0.039;entryDx=0;entryDy=0;entryPerimeter=0;" parent="1" target="pPmnraLCHtTLtx8yH-ZN-3" edge="1">
          <mxGeometry width="50" height="50" relative="1" as="geometry">
            <mxPoint x="-795" y="80" as="sourcePoint" />
            <mxPoint x="-800" y="170" as="targetPoint" />
          </mxGeometry>
        </mxCell>
        <mxCell id="pPmnraLCHtTLtx8yH-ZN-3" value="Works" style="swimlane;fontStyle=1;align=center;verticalAlign=top;childLayout=stackLayout;horizontal=1;startSize=26;horizontalStack=0;resizeParent=1;resizeParentMax=0;resizeLast=0;collapsible=1;marginBottom=0;whiteSpace=wrap;html=1;" parent="1" vertex="1">
          <mxGeometry x="-840" y="240" width="90" height="52" as="geometry" />
        </mxCell>
        <mxCell id="pPmnraLCHtTLtx8yH-ZN-4" value="Hours" style="text;strokeColor=none;fillColor=none;align=left;verticalAlign=top;spacingLeft=4;spacingRight=4;overflow=hidden;rotatable=0;points=[[0,0.5],[1,0.5]];portConstraint=eastwest;whiteSpace=wrap;html=1;" parent="pPmnraLCHtTLtx8yH-ZN-3" vertex="1">
          <mxGeometry y="26" width="90" height="26" as="geometry" />
        </mxCell>
        <mxCell id="pPmnraLCHtTLtx8yH-ZN-10" value="" style="endArrow=diamondThin;endFill=1;endSize=24;html=1;rounded=0;exitX=0.47;exitY=-0.019;exitDx=0;exitDy=0;exitPerimeter=0;" parent="1" source="Ye74qde-6JXeKK0IROxp-40" edge="1">
          <mxGeometry width="160" relative="1" as="geometry">
            <mxPoint x="-1260" y="384.52" as="sourcePoint" />
            <mxPoint x="-1100" y="384.52" as="targetPoint" />
            <Array as="points">
              <mxPoint x="-1272" y="385" />
            </Array>
          </mxGeometry>
        </mxCell>
        <mxCell id="pPmnraLCHtTLtx8yH-ZN-11" value="1&lt;br&gt;Supervise" style="text;html=1;strokeColor=none;fillColor=none;align=center;verticalAlign=middle;whiteSpace=wrap;rounded=0;" parent="1" vertex="1">
          <mxGeometry x="-1060" y="220" width="60" height="30" as="geometry" />
        </mxCell>
        <mxCell id="RIbbEanmppBnDyKD_0Xd-1" value="Text" style="text;html=1;strokeColor=none;fillColor=none;align=center;verticalAlign=middle;whiteSpace=wrap;rounded=0;" parent="1" vertex="1">
          <mxGeometry x="-840" y="180" width="60" height="30" as="geometry" />
        </mxCell>
        <mxCell id="RIbbEanmppBnDyKD_0Xd-2" value="Text" style="text;html=1;strokeColor=none;fillColor=none;align=center;verticalAlign=middle;whiteSpace=wrap;rounded=0;" parent="1" vertex="1">
          <mxGeometry x="-840" y="180" width="60" height="30" as="geometry" />
        </mxCell>
        <mxCell id="RIbbEanmppBnDyKD_0Xd-3" value="Text" style="text;html=1;strokeColor=none;fillColor=none;align=center;verticalAlign=middle;whiteSpace=wrap;rounded=0;" parent="1" vertex="1">
          <mxGeometry x="-840" y="180" width="60" height="30" as="geometry" />
        </mxCell>
        <mxCell id="RIbbEanmppBnDyKD_0Xd-4" value="Text" style="text;html=1;strokeColor=none;fillColor=none;align=center;verticalAlign=middle;whiteSpace=wrap;rounded=0;" parent="1" vertex="1">
          <mxGeometry x="-840" y="180" width="60" height="30" as="geometry" />
        </mxCell>
        <mxCell id="RIbbEanmppBnDyKD_0Xd-5" value="Text" style="text;html=1;strokeColor=none;fillColor=none;align=center;verticalAlign=middle;whiteSpace=wrap;rounded=0;" parent="1" vertex="1">
          <mxGeometry x="-840" y="180" width="60" height="30" as="geometry" />
        </mxCell>
        <mxCell id="RIbbEanmppBnDyKD_0Xd-6" value="Text" style="text;html=1;strokeColor=none;fillColor=none;align=center;verticalAlign=middle;whiteSpace=wrap;rounded=0;" parent="1" vertex="1">
          <mxGeometry x="-840" y="180" width="60" height="30" as="geometry" />
        </mxCell>
        <mxCell id="RIbbEanmppBnDyKD_0Xd-7" value="Text" style="text;html=1;strokeColor=none;fillColor=none;align=center;verticalAlign=middle;whiteSpace=wrap;rounded=0;" parent="1" vertex="1">
          <mxGeometry x="-840" y="180" width="60" height="30" as="geometry" />
        </mxCell>
        <mxCell id="RIbbEanmppBnDyKD_0Xd-8" value="Text" style="text;html=1;strokeColor=none;fillColor=none;align=center;verticalAlign=middle;whiteSpace=wrap;rounded=0;" parent="1" vertex="1">
          <mxGeometry x="-840" y="180" width="60" height="30" as="geometry" />
        </mxCell>
        <mxCell id="RIbbEanmppBnDyKD_0Xd-9" value="Text" style="text;html=1;strokeColor=none;fillColor=none;align=center;verticalAlign=middle;whiteSpace=wrap;rounded=0;" parent="1" vertex="1">
          <mxGeometry x="-840" y="180" width="60" height="30" as="geometry" />
        </mxCell>
        <mxCell id="RIbbEanmppBnDyKD_0Xd-10" value="Text" style="text;html=1;strokeColor=none;fillColor=none;align=center;verticalAlign=middle;whiteSpace=wrap;rounded=0;" parent="1" vertex="1">
          <mxGeometry x="-840" y="180" width="60" height="30" as="geometry" />
        </mxCell>
        <mxCell id="RIbbEanmppBnDyKD_0Xd-11" value="Text" style="text;html=1;strokeColor=none;fillColor=none;align=center;verticalAlign=middle;whiteSpace=wrap;rounded=0;" parent="1" vertex="1">
          <mxGeometry x="-840" y="180" width="60" height="30" as="geometry" />
        </mxCell>
        <mxCell id="RIbbEanmppBnDyKD_0Xd-12" value="Text" style="text;html=1;strokeColor=none;fillColor=none;align=center;verticalAlign=middle;whiteSpace=wrap;rounded=0;" parent="1" vertex="1">
          <mxGeometry x="-840" y="180" width="60" height="30" as="geometry" />
        </mxCell>
        <mxCell id="RIbbEanmppBnDyKD_0Xd-13" value="Text" style="text;html=1;strokeColor=none;fillColor=none;align=center;verticalAlign=middle;whiteSpace=wrap;rounded=0;" parent="1" vertex="1">
          <mxGeometry x="-840" y="180" width="60" height="30" as="geometry" />
        </mxCell>
        <mxCell id="RIbbEanmppBnDyKD_0Xd-14" value="&lt;b&gt;&lt;font style=&quot;font-size: 14px;&quot;&gt;0..1&lt;/font&gt;&lt;/b&gt;" style="text;html=1;strokeColor=none;fillColor=none;align=center;verticalAlign=middle;whiteSpace=wrap;rounded=0;" parent="1" vertex="1">
          <mxGeometry x="-860" y="400" width="60" height="30" as="geometry" />
        </mxCell>
        <mxCell id="RIbbEanmppBnDyKD_0Xd-15" value="&lt;b&gt;&lt;font style=&quot;font-size: 14px;&quot;&gt;1..*&lt;/font&gt;&lt;/b&gt;" style="text;html=1;strokeColor=none;fillColor=none;align=center;verticalAlign=middle;whiteSpace=wrap;rounded=0;" parent="1" vertex="1">
          <mxGeometry x="-370" y="410" width="60" height="30" as="geometry" />
        </mxCell>
        <mxCell id="RIbbEanmppBnDyKD_0Xd-16" value="&lt;b&gt;&lt;font style=&quot;font-size: 14px;&quot;&gt;1..1&lt;/font&gt;&lt;/b&gt;" style="text;html=1;strokeColor=none;fillColor=none;align=center;verticalAlign=middle;whiteSpace=wrap;rounded=0;" parent="1" vertex="1">
          <mxGeometry x="-290" y="260" width="60" height="30" as="geometry" />
        </mxCell>
        <mxCell id="RIbbEanmppBnDyKD_0Xd-18" value="&lt;b&gt;&lt;font style=&quot;font-size: 14px;&quot;&gt;0..*&lt;/font&gt;&lt;/b&gt;" style="text;html=1;strokeColor=none;fillColor=none;align=center;verticalAlign=middle;whiteSpace=wrap;rounded=0;" parent="1" vertex="1">
          <mxGeometry x="-525" y="20" width="60" height="30" as="geometry" />
        </mxCell>
        <mxCell id="RIbbEanmppBnDyKD_0Xd-19" value="&lt;b&gt;&lt;font style=&quot;font-size: 14px;&quot;&gt;0..*&lt;/font&gt;&lt;/b&gt;" style="text;html=1;strokeColor=none;fillColor=none;align=center;verticalAlign=middle;whiteSpace=wrap;rounded=0;" parent="1" vertex="1">
          <mxGeometry x="-980" y="220" width="60" height="30" as="geometry" />
        </mxCell>
        <mxCell id="RIbbEanmppBnDyKD_0Xd-20" value="&lt;b&gt;&lt;font style=&quot;font-size: 14px;&quot;&gt;0..*&lt;/font&gt;&lt;/b&gt;" style="text;html=1;strokeColor=none;fillColor=none;align=center;verticalAlign=middle;whiteSpace=wrap;rounded=0;" parent="1" vertex="1">
          <mxGeometry x="-820" y="20" width="60" height="30" as="geometry" />
        </mxCell>
        <mxCell id="RIbbEanmppBnDyKD_0Xd-21" value="&lt;span style=&quot;font-size: 14px;&quot;&gt;&lt;b&gt;1..*&lt;/b&gt;&lt;/span&gt;" style="text;html=1;strokeColor=none;fillColor=none;align=center;verticalAlign=middle;whiteSpace=wrap;rounded=0;" parent="1" vertex="1">
          <mxGeometry x="-420" y="110" width="60" height="30" as="geometry" />
        </mxCell>
        <mxCell id="RIbbEanmppBnDyKD_0Xd-22" value="&lt;span style=&quot;font-size: 14px;&quot;&gt;&lt;b&gt;1..1&lt;/b&gt;&lt;/span&gt;" style="text;html=1;strokeColor=none;fillColor=none;align=center;verticalAlign=middle;whiteSpace=wrap;rounded=0;" parent="1" vertex="1">
          <mxGeometry x="-655" y="400" width="60" height="30" as="geometry" />
        </mxCell>
        <mxCell id="RIbbEanmppBnDyKD_0Xd-23" value="&lt;span style=&quot;font-size: 14px;&quot;&gt;&lt;b&gt;1..1&lt;/b&gt;&lt;/span&gt;" style="text;html=1;strokeColor=none;fillColor=none;align=center;verticalAlign=middle;whiteSpace=wrap;rounded=0;" parent="1" vertex="1">
          <mxGeometry x="-490" y="670" width="60" height="30" as="geometry" />
        </mxCell>
        <mxCell id="RIbbEanmppBnDyKD_0Xd-24" value="&lt;b&gt;&lt;font style=&quot;font-size: 14px;&quot;&gt;1..1&lt;/font&gt;&lt;/b&gt;" style="text;html=1;strokeColor=none;fillColor=none;align=center;verticalAlign=middle;whiteSpace=wrap;rounded=0;" parent="1" vertex="1">
          <mxGeometry x="-490" y="740" width="60" height="30" as="geometry" />
        </mxCell>
        <mxCell id="RIbbEanmppBnDyKD_0Xd-27" value="&lt;b&gt;&lt;font style=&quot;font-size: 14px;&quot;&gt;0..1&lt;/font&gt;&lt;/b&gt;" style="text;html=1;strokeColor=none;fillColor=none;align=center;verticalAlign=middle;whiteSpace=wrap;rounded=0;" parent="1" vertex="1">
          <mxGeometry x="-1040" y="520" width="60" height="30" as="geometry" />
        </mxCell>
        <mxCell id="RIbbEanmppBnDyKD_0Xd-28" value="&lt;b&gt;&lt;font style=&quot;font-size: 14px;&quot;&gt;1..1&lt;/font&gt;&lt;/b&gt;" style="text;html=1;strokeColor=none;fillColor=none;align=center;verticalAlign=middle;whiteSpace=wrap;rounded=0;" parent="1" vertex="1">
          <mxGeometry x="-1040" y="660" width="60" height="30" as="geometry" />
        </mxCell>
        <mxCell id="RIbbEanmppBnDyKD_0Xd-29" value="&lt;b&gt;&lt;font style=&quot;font-size: 14px;&quot;&gt;1..1&lt;/font&gt;&lt;/b&gt;" style="text;html=1;strokeColor=none;fillColor=none;align=center;verticalAlign=middle;whiteSpace=wrap;rounded=0;" parent="1" vertex="1">
          <mxGeometry x="-780" y="810" width="60" height="30" as="geometry" />
        </mxCell>
        <mxCell id="RIbbEanmppBnDyKD_0Xd-31" value="&lt;b&gt;&lt;font style=&quot;font-size: 14px;&quot;&gt;0..1&lt;/font&gt;&lt;/b&gt;" style="text;html=1;strokeColor=none;fillColor=none;align=center;verticalAlign=middle;whiteSpace=wrap;rounded=0;" parent="1" vertex="1">
          <mxGeometry x="-620" y="820" width="60" height="30" as="geometry" />
        </mxCell>
        <mxCell id="RIbbEanmppBnDyKD_0Xd-32" value="" style="endArrow=none;html=1;rounded=0;entryX=1;entryY=0.75;entryDx=0;entryDy=0;exitX=0;exitY=0.75;exitDx=0;exitDy=0;" parent="1" source="Ye74qde-6JXeKK0IROxp-37" target="Ye74qde-6JXeKK0IROxp-38" edge="1">
          <mxGeometry width="50" height="50" relative="1" as="geometry">
            <mxPoint x="-430" y="780" as="sourcePoint" />
            <mxPoint x="-390" y="740" as="targetPoint" />
            <Array as="points">
              <mxPoint x="-780" y="845" />
            </Array>
          </mxGeometry>
        </mxCell>
        <mxCell id="RIbbEanmppBnDyKD_0Xd-33" value="&lt;b&gt;&lt;font style=&quot;font-size: 14px;&quot;&gt;1..*&lt;/font&gt;&lt;/b&gt;" style="text;html=1;strokeColor=none;fillColor=none;align=center;verticalAlign=middle;whiteSpace=wrap;rounded=0;" parent="1" vertex="1">
          <mxGeometry x="-910" y="1070" width="60" height="30" as="geometry" />
        </mxCell>
        <mxCell id="RIbbEanmppBnDyKD_0Xd-34" value="&lt;b&gt;&lt;font style=&quot;font-size: 14px;&quot;&gt;1..*&lt;/font&gt;&lt;/b&gt;" style="text;html=1;strokeColor=none;fillColor=none;align=center;verticalAlign=middle;whiteSpace=wrap;rounded=0;" parent="1" vertex="1">
          <mxGeometry x="-120" y="900" width="60" height="30" as="geometry" />
        </mxCell>
      </root>
    </mxGraphModel>
  </diagram>
</mxfile>
